<?xml version="1.0" standalone="no"?>
<!DOCTYPE svg PUBLIC "-//W3C//DTD SVG 20010904//EN"
 "http://www.w3.org/TR/2001/REC-SVG-20010904/DTD/svg10.dtd">
<svg version="1.0" xmlns="http://www.w3.org/2000/svg"
 width="256.000000pt" height="256.000000pt" viewBox="0 0 256.000000 256.000000"
 preserveAspectRatio="xMidYMid meet">
<metadata>
Created by potrace 1.14, written by Peter Selinger 2001-2017
</metadata>
<g transform="translate(0.000000,256.000000) scale(0.100000,-0.100000)"
fill="#000000" stroke="none">
<path d="M1425 2223 c-16 -14 -24 -22 -16 -18 9 6 12 4 7 -3 -4 -7 -14 -12
-22 -12 -9 0 -12 5 -8 12 4 7 3 8 -5 4 -9 -6 -9 -11 1 -24 10 -12 10 -14 1 -8
-8 4 -13 2 -13 -4 0 -6 -5 -8 -12 -4 -9 5 -8 2 1 -9 12 -15 12 -17 -4 -11 -13
6 -16 4 -10 -5 6 -10 2 -11 -16 -6 -17 4 -20 3 -10 -3 11 -8 11 -10 0 -15 -10
-4 -10 -6 -1 -6 6 -1 12 -6 12 -12 0 -5 -4 -8 -9 -5 -5 3 -12 -1 -15 -10 -3
-8 -2 -13 2 -10 5 3 9 -1 9 -9 0 -8 -4 -12 -8 -10 -3 3 -13 -3 -20 -12 -10
-12 -10 -14 -1 -9 18 11 15 -14 -5 -37 -10 -11 -12 -17 -5 -13 14 8 13 9 15
-57 0 -32 4 -44 11 -37 14 14 23 12 23 -5 0 -8 -3 -12 -7 -10 -4 2 -7 -3 -7
-11 0 -8 6 -13 13 -10 15 6 37 -19 41 -47 6 -34 22 -48 45 -36 18 9 18 9 8
-10 -13 -26 -3 -28 17 -3 11 13 14 13 10 2 -3 -9 1 -24 9 -35 9 -12 14 -14 14
-5 0 7 3 11 6 7 3 -3 17 -2 31 4 16 6 22 6 18 -1 -8 -14 8 -13 22 1 9 9 11 6
7 -12 -4 -24 -4 -24 7 -2 6 12 18 24 27 28 13 5 13 3 1 -12 -12 -15 -12 -16 4
-10 10 4 21 7 23 7 3 0 3 4 0 9 -4 5 5 8 18 7 15 -2 27 3 31 12 4 11 8 12 20
2 13 -11 14 -10 9 4 -5 13 -2 15 12 9 17 -6 18 -5 4 12 -14 17 -14 18 8 6 22
-12 23 -11 13 7 -10 18 -8 20 14 17 14 -1 23 0 20 3 -2 3 1 12 8 20 8 11 8 14
0 9 -13 -8 -12 18 2 30 4 4 5 2 1 -4 -4 -7 -2 -13 3 -13 6 0 11 8 11 18 0 10
5 23 12 30 8 8 8 15 -1 26 -9 11 -9 16 0 22 7 4 9 3 6 -3 -3 -5 0 -10 7 -10
17 0 9 27 -8 28 -6 0 -2 4 9 9 18 8 18 9 -5 10 -14 1 -19 4 -12 7 6 2 12 9 12
14 0 6 -6 7 -12 4 -7 -4 -6 -1 3 7 16 13 23 51 7 42 -5 -3 -6 -10 -3 -15 4 -5
-2 -6 -11 -2 -11 4 -13 8 -6 11 7 2 12 8 12 13 0 6 -6 7 -12 3 -10 -6 -10 -5
-1 8 13 15 8 28 -11 28 -6 0 -4 -5 4 -11 13 -9 13 -10 0 -6 -8 2 -14 12 -12
22 2 12 -1 15 -10 9 -9 -5 -8 -2 2 11 9 11 10 16 3 11 -9 -5 -13 -1 -13 11 0
10 -12 27 -27 37 -14 11 -23 14 -19 8 4 -7 2 -12 -3 -12 -6 0 -11 5 -11 11 0
5 -4 7 -10 4 -5 -3 -10 -2 -10 4 0 5 3 11 8 14 10 5 -9 1 -33 -9 -17 -6 -17
-5 3 12 l23 19 -45 1 c-31 1 -44 -2 -39 -10 3 -6 0 -5 -8 2 -16 14 -83 17 -74
2 3 -5 1 -10 -4 -10 -6 0 -11 5 -11 10 0 6 -5 10 -11 10 -5 0 -7 -6 -3 -12 6
-10 5 -10 -7 -1 -11 9 -20 6 -44 -14z m32 -5 c0 -13 -1 -17 -4 -10 -3 6 -10 9
-16 5 -7 -4 -6 1 2 10 17 21 17 21 18 -5z m283 -62 c0 -6 -5 -3 -11 7 -6 9
-15 14 -21 11 -7 -4 -8 -2 -4 5 9 14 36 -3 36 -23z m-330 -372 c0 -8 -19 -13
-24 -6 -3 5 1 9 9 9 8 0 15 -2 15 -3z m60 -44 c0 -5 -2 -10 -4 -10 -3 0 -8 5
-11 10 -3 6 -1 10 4 10 6 0 11 -4 11 -10z"/>
<path d="M607 2046 c-11 -8 -14 -17 -8 -20 5 -4 15 3 21 14 13 23 11 24 -13 6z"/>
<path d="M620 2025 c-10 -12 -16 -13 -27 -3 -11 9 -19 9 -35 -1 -11 -7 -17 -8
-13 -2 9 16 -7 13 -34 -6 -14 -9 -21 -11 -17 -5 11 17 -10 15 -28 -4 -10 -9
-16 -11 -16 -4 0 7 -6 5 -16 -4 -8 -9 -27 -16 -42 -16 -19 0 -23 -3 -13 -9 8
-5 9 -11 3 -15 -6 -3 -13 -2 -17 4 -4 6 -15 3 -30 -7 -12 -10 -21 -21 -19 -24
2 -3 -4 -15 -12 -25 -13 -16 -15 -16 -10 -2 3 12 1 15 -9 12 -8 -3 -11 -13 -7
-22 5 -15 4 -15 -11 -3 -21 17 -22 8 -2 -12 13 -13 13 -16 -1 -21 -8 -3 -13
-2 -10 3 3 5 -1 11 -9 14 -10 4 -12 1 -8 -10 4 -10 2 -14 -4 -10 -6 4 -9 -3
-7 -19 2 -20 0 -23 -11 -14 -10 8 -15 8 -21 -1 -5 -8 -3 -10 7 -5 8 4 6 1 -5
-8 -10 -8 -16 -22 -13 -30 4 -11 1 -13 -10 -9 -11 4 -14 2 -9 -5 4 -7 1 -12
-8 -12 -8 0 -18 -5 -22 -12 -5 -7 -2 -9 8 -6 8 4 15 1 15 -7 0 -8 -7 -11 -15
-7 -10 3 -13 1 -8 -6 4 -8 0 -12 -11 -12 -15 0 -16 -2 -3 -10 14 -9 7 -14 -15
-11 -5 1 -1 -6 9 -14 16 -12 16 -15 4 -15 -8 0 -22 -8 -31 -18 -15 -17 -15
-20 0 -42 9 -13 12 -21 7 -17 -6 3 -16 2 -23 -2 -10 -6 -9 -12 4 -25 16 -16
16 -16 -9 -12 -22 4 -25 2 -17 -11 11 -21 2 -55 -19 -70 -12 -8 -16 -21 -13
-38 3 -14 1 -25 -4 -25 -5 0 -10 -7 -10 -16 0 -14 2 -14 14 2 7 10 13 21 13
24 0 4 7 7 16 7 15 0 14 -2 -1 -13 -16 -12 -16 -16 -4 -31 13 -17 13 -17 -5
-3 -18 14 -19 13 -13 -2 4 -11 2 -15 -6 -12 -8 3 -13 -5 -15 -21 -1 -14 4 -25
11 -25 8 0 7 -4 -3 -10 -13 -9 -13 -11 0 -20 12 -8 12 -10 1 -10 -11 0 -11 -3
0 -17 8 -10 9 -14 2 -10 -8 5 -11 -5 -10 -38 1 -25 6 -45 12 -45 5 0 4 -4 -3
-9 -17 -10 -12 -41 8 -59 13 -12 13 -13 -2 -8 -23 7 -23 -10 -1 -24 17 -11 17
-11 0 -6 -9 3 -17 2 -17 -3 0 -5 9 -11 20 -14 17 -4 18 -9 10 -38 -12 -42 -12
-48 0 -29 5 8 12 12 15 8 3 -3 -1 -13 -10 -22 -14 -14 -14 -16 -2 -16 9 0 18
6 20 13 4 9 6 9 6 -1 1 -7 -6 -15 -14 -18 -13 -5 -12 -8 1 -21 9 -9 13 -24 11
-34 -3 -11 -1 -21 4 -24 4 -3 6 -11 3 -18 -2 -7 3 -21 11 -32 15 -19 16 -19 5
3 -7 13 -9 26 -6 29 3 4 0 13 -7 22 -11 14 -10 14 6 2 10 -8 16 -20 13 -27 -2
-6 1 -20 9 -30 9 -14 10 -24 3 -38 -9 -16 -7 -18 6 -13 10 4 15 3 11 -3 -3 -6
-1 -10 6 -10 8 0 7 -5 -2 -17 -12 -15 -12 -16 3 -10 13 4 15 2 11 -10 -5 -12
-3 -14 8 -8 11 6 12 5 1 -6 -17 -18 -15 -29 6 -29 14 0 15 2 2 10 -8 5 -10 10
-4 10 18 0 24 -13 13 -27 -9 -10 -8 -13 0 -13 7 0 9 -5 5 -12 -5 -9 -2 -9 9 1
20 16 22 8 5 -22 -10 -19 -9 -21 4 -9 11 9 18 10 23 2 3 -6 12 -7 18 -3 9 5 9
3 1 -8 -13 -16 -15 -51 -2 -43 5 3 5 11 1 17 -4 7 0 6 10 -2 9 -7 17 -25 17
-38 0 -23 2 -24 17 -12 10 7 15 10 11 5 -4 -5 0 -15 8 -23 8 -8 11 -20 7 -26
-4 -7 1 -6 10 2 16 12 17 12 11 -5 -5 -18 -5 -18 10 0 18 22 21 14 7 -13 -7
-13 -6 -18 4 -18 8 0 12 4 9 9 -3 4 2 5 11 2 9 -4 14 -13 11 -20 -3 -7 0 -16
6 -20 7 -4 8 -3 4 4 -4 7 -1 12 9 12 9 0 13 -4 10 -10 -5 -9 -1 -11 20 -10 3
1 13 -6 21 -15 9 -8 20 -13 25 -10 5 4 9 -1 9 -9 0 -9 5 -16 11 -16 5 0 7 6 3
13 -6 9 -5 9 8 0 8 -7 19 -9 23 -5 5 4 5 1 1 -5 -9 -17 6 -17 23 -1 11 10 13
10 7 1 -6 -12 5 -17 26 -14 4 0 5 -5 2 -12 -6 -17 44 -21 64 -5 13 11 14 11 8
0 -6 -10 9 -13 73 -11 51 1 81 6 81 13 0 8 3 8 8 0 9 -13 68 -12 82 2 7 7 6
11 -5 11 -8 0 -15 -4 -15 -9 0 -4 -5 -8 -10 -8 -6 0 -5 8 2 20 7 10 15 16 18
12 3 -4 12 -7 20 -7 8 0 14 -6 12 -13 -1 -8 2 -11 8 -7 13 8 13 11 -7 31 -17
17 -17 18 1 11 12 -5 23 -3 28 5 6 9 7 4 4 -12 -3 -14 -3 -19 0 -12 3 6 11 9
16 6 7 -5 8 -2 3 6 -6 10 -4 12 8 7 11 -4 14 -2 10 8 -3 8 -10 12 -17 8 -6 -3
-7 -2 -3 3 5 5 12 9 15 9 4 0 13 4 21 9 10 7 12 6 6 -4 -6 -10 -4 -12 9 -7 10
4 20 7 22 7 3 0 2 5 -2 11 -4 7 -1 10 7 7 8 -3 20 2 26 11 11 14 14 14 23 1 5
-8 10 -10 10 -5 0 6 -6 17 -12 24 -7 8 -8 11 -2 8 6 -4 21 4 34 18 12 13 28
21 36 18 9 -3 14 2 14 13 0 11 4 15 8 9 4 -5 13 -11 21 -13 12 -3 12 -1 0 14
-13 16 -12 17 5 11 17 -7 17 -6 5 9 -13 16 -12 16 8 6 20 -11 21 -10 18 9 -4
18 -2 19 12 7 15 -12 15 -11 5 8 -10 19 -9 21 13 16 15 -2 25 0 25 7 0 7 -5 9
-12 5 -9 -5 -9 -2 1 9 15 19 36 23 25 5 -4 -7 -3 -8 5 -4 9 6 9 11 -1 24 -8 9
-8 13 -1 9 17 -10 45 3 39 19 -3 8 -1 14 5 14 6 0 7 5 4 10 -3 6 1 10 10 10
10 0 13 -5 9 -12 -4 -8 -3 -9 2 -5 5 5 9 16 9 25 0 10 7 16 18 15 15 -1 18 4
13 20 -5 21 -5 21 9 3 8 -11 15 -16 15 -10 0 5 9 -4 20 -21 11 -16 20 -25 20
-18 0 6 -4 15 -10 18 -5 3 -10 12 -10 18 0 7 9 -1 19 -17 11 -17 17 -35 14
-40 -4 -6 0 -6 8 1 10 8 19 9 29 1 12 -8 12 -9 -2 -4 -10 3 -18 1 -18 -4 0 -6
8 -10 18 -10 10 0 23 -10 28 -22 6 -13 9 -18 7 -11 -1 7 2 15 8 18 5 4 9 3 8
-2 -3 -19 2 -34 10 -28 5 3 13 0 17 -6 4 -8 3 -9 -4 -5 -7 4 -12 2 -12 -5 0
-7 8 -9 21 -6 15 4 19 2 15 -8 -3 -9 1 -12 14 -10 11 2 22 -1 25 -6 4 -5 11
-7 16 -3 5 3 9 2 8 -3 -1 -4 -1 -17 1 -28 l1 -20 9 20 c8 18 9 18 9 -5 1 -18
4 -21 10 -11 6 9 10 10 12 2 3 -7 14 -13 26 -13 13 -1 19 -7 16 -15 -4 -10 0
-11 21 -4 17 7 27 7 32 -1 5 -7 3 -8 -6 -3 -9 5 -11 4 -6 -3 4 -7 16 -12 27
-12 14 0 18 4 13 13 -5 8 -2 8 9 -2 9 -7 17 -21 18 -30 1 -9 4 -5 9 9 5 16 8
19 9 8 1 -9 6 -20 13 -24 7 -4 8 -3 4 4 -4 7 -2 12 3 12 6 0 11 -7 11 -15 0
-17 16 -20 25 -5 3 5 13 6 22 3 11 -4 14 -3 9 5 -5 8 -2 10 8 6 9 -3 14 -9 12
-13 -6 -10 41 -8 50 2 5 4 1 5 -8 2 -9 -4 -18 -2 -22 3 -3 5 15 7 40 5 28 -3
51 1 62 9 9 7 13 8 10 3 -4 -6 2 -11 12 -12 11 -1 22 3 25 8 4 5 11 6 17 3 7
-4 8 -2 4 5 -4 6 -13 8 -19 4 -7 -4 -6 0 2 10 15 19 26 23 15 5 -5 -7 -2 -9 9
-5 9 3 18 1 21 -6 4 -7 4 -1 2 11 -3 13 -2 21 1 18 4 -3 12 -1 19 5 8 7 14 6
20 -2 4 -7 3 -9 -4 -5 -6 3 -13 2 -16 -3 -9 -14 22 -7 37 9 6 7 7 10 1 7 -6
-3 -11 0 -11 7 0 8 6 12 13 9 14 -5 84 37 84 51 0 5 -10 1 -22 -10 l-23 -19
19 22 c16 19 22 21 34 10 11 -8 13 -8 9 0 -9 14 2 43 15 43 6 0 4 -8 -3 -17
-13 -16 -12 -17 4 -4 13 11 15 17 6 28 -10 11 -8 12 5 7 11 -4 16 -2 14 7 -2
8 3 13 11 11 12 -3 12 -1 0 14 -12 16 -12 17 5 11 14 -6 17 -4 12 9 -5 12 -2
15 9 10 9 -3 14 -2 10 3 -3 5 -2 11 2 14 5 2 2 2 -5 1 -9 -3 -10 1 -2 16 6 11
14 20 19 20 5 0 7 11 5 26 -2 22 0 23 14 12 13 -11 14 -11 8 0 -5 8 -1 22 11
34 10 12 12 18 6 14 -7 -4 -13 -2 -13 4 0 6 -4 9 -9 5 -5 -3 -13 -1 -16 5 -4
6 -1 9 7 8 7 -2 12 5 12 14 -1 11 4 14 14 11 10 -4 13 -2 10 8 -3 8 -11 13
-18 11 -11 -2 -10 0 0 13 13 16 15 16 26 0 12 -16 13 -16 11 3 0 11 -5 18 -9
16 -4 -3 -8 0 -8 6 0 6 -5 8 -12 4 -7 -5 -8 -3 -2 7 12 20 12 82 -1 94 -5 6
-8 9 -6 8 2 -2 9 1 16 7 8 6 11 -7 10 -50 0 -33 2 -57 4 -54 3 3 6 37 6 77 1
39 -1 65 -3 59 -2 -7 -11 -12 -20 -11 -11 0 -12 3 -5 6 10 3 10 10 1 26 -6 12
-11 23 -10 25 8 11 -1 12 -15 1 -16 -13 -17 -12 -4 4 19 24 28 21 39 -10 l11
-28 -2 28 c-1 15 -4 27 -7 27 -4 0 -15 7 -26 16 -10 8 -14 13 -7 10 20 -10 7
46 -14 64 -32 26 -43 53 -30 75 9 18 9 19 -6 6 -15 -12 -17 -12 -11 4 6 15 3
16 -17 10 -20 -6 -22 -5 -11 6 15 16 16 33 0 23 -8 -5 -9 -2 -4 11 5 14 4 16
-7 6 -20 -16 -52 19 -34 39 10 10 9 12 -5 7 -12 -4 -18 -1 -18 8 0 8 -5 15
-11 15 -5 0 -7 -6 -3 -12 4 -7 -2 -5 -13 5 -11 9 -23 14 -28 10 -4 -5 -5 -3
-2 4 4 6 0 19 -9 27 -10 11 -11 16 -3 16 7 0 10 3 6 6 -3 3 -12 2 -19 -2 -19
-12 -39 -14 -32 -3 3 5 9 7 13 5 4 -3 8 1 8 9 0 11 -5 12 -20 4 -17 -10 -18
-8 -12 13 6 19 5 21 -6 11 -18 -18 -29 -16 -29 4 0 15 -2 14 -15 -3 -11 -13
-13 -14 -9 -3 4 13 -1 16 -20 14 -19 -2 -23 1 -19 13 4 9 2 13 -4 9 -6 -4 -14
-1 -17 5 -3 7 -3 0 -1 -16 2 -16 1 -25 -3 -21 -7 6 -8 11 -11 37 -1 9 -4 9
-13 0 -7 -7 -17 -12 -23 -12 -5 0 -3 5 5 10 13 8 13 10 -2 10 -9 0 -18 5 -20
12 -3 7 -7 5 -11 -6 -5 -11 -3 -15 5 -10 6 4 8 3 4 -4 -7 -11 -18 -10 -73 7
-21 6 -35 6 -39 0 -3 -5 -10 -7 -15 -3 -5 3 -17 0 -26 -8 -12 -9 -15 -9 -9 0
4 6 3 12 -2 12 -6 0 -12 -7 -16 -15 -3 -8 -9 -15 -13 -14 -4 1 -10 0 -13 -1
-19 -7 -39 -7 -34 1 3 5 10 6 16 3 7 -4 8 -2 4 4 -4 7 1 10 14 7 11 -2 20 0
20 6 0 7 -29 7 -50 -1 -3 -2 -8 -2 -12 -1 -3 0 -5 -11 -3 -24 1 -14 -2 -25 -6
-25 -5 0 -9 8 -9 18 0 14 -2 14 -9 3 -5 -8 -17 -16 -25 -17 -9 -1 -14 2 -10 7
3 5 10 6 16 3 7 -4 8 -2 4 4 -8 14 -46 -6 -43 -22 1 -6 -6 -10 -15 -8 -11 2
-18 -3 -18 -13 0 -9 -5 -13 -10 -10 -6 4 -7 11 -4 17 4 7 2 8 -5 4 -6 -4 -9
-12 -6 -17 4 -5 1 -9 -5 -9 -6 0 -8 -5 -4 -12 4 -7 3 -8 -4 -4 -6 4 -8 14 -5
23 4 11 3 14 -5 9 -7 -4 -12 -13 -12 -21 0 -7 -7 -15 -14 -18 -11 -4 -13 -1
-10 11 5 15 4 15 -6 -1 -6 -9 -8 -23 -4 -30 5 -8 2 -7 -9 2 -15 12 -17 11 -17
-3 0 -10 -4 -15 -9 -12 -5 3 -12 -1 -15 -10 -4 -10 -12 -14 -22 -10 -12 5 -15
2 -10 -10 5 -14 4 -15 -9 -4 -13 11 -15 9 -15 -11 -1 -24 -1 -24 -17 -4 -12
15 -14 16 -10 3 7 -19 -19 -33 -29 -16 -4 7 -3 8 4 4 7 -4 12 -2 12 3 0 6 -5
11 -10 11 -6 0 -23 12 -38 27 -15 15 -19 21 -9 13 9 -7 20 -10 23 -8 3 3 -8
12 -25 19 -16 7 -27 17 -25 21 3 4 0 8 -6 8 -6 0 -8 5 -5 10 3 6 -2 10 -11 10
-10 0 -14 3 -11 7 4 3 -1 12 -11 20 -9 8 -12 12 -6 9 6 -3 11 1 11 8 0 8 -8
11 -19 8 -10 -2 -18 1 -18 7 0 7 5 9 12 5 7 -4 8 -3 4 4 -4 7 -14 12 -22 12
-17 0 -19 26 -1 34 6 3 3 4 -8 3 -13 -1 -19 3 -17 12 3 12 0 12 -12 2 -12 -10
-14 -9 -10 7 3 11 -2 24 -13 32 -15 12 -16 12 -5 0 19 -22 14 -32 -6 -12 -11
9 -16 22 -13 27 10 17 10 35 0 29 -5 -3 -7 -10 -4 -15 3 -5 -1 -6 -9 -3 -9 3
-13 10 -10 15 3 5 0 9 -7 9 -7 0 -10 3 -6 6 7 8 -33 54 -48 54 -7 0 -20 10
-31 22 -15 19 -16 20 -1 9 9 -7 17 -10 17 -5 0 5 5 2 11 -6 9 -13 10 -13 6 0
-2 8 -10 15 -18 15 -8 1 -13 7 -11 13 2 10 -2 10 -20 1 -22 -12 -22 -11 -8 6
14 17 13 18 -2 13 -20 -8 -31 1 -18 16 6 8 3 12 -11 14 -44 4 -46 6 -41 25 4
17 1 19 -17 14 -19 -5 -20 -3 -9 11 10 12 10 14 1 8 -8 -4 -13 -2 -13 4 0 6
-4 8 -10 5 -5 -3 -10 -1 -10 4 0 6 -5 11 -11 11 -5 0 -7 -5 -3 -12 4 -7 3 -8
-4 -4 -6 4 -9 12 -6 19 4 10 -36 30 -83 40 -7 2 -16 7 -20 12 -4 4 -3 5 4 1 6
-3 15 -1 19 6 4 7 4 10 -1 6 -4 -4 -14 -3 -21 3 -8 7 -14 6 -20 -2 -4 -8 -3
-9 4 -5 8 5 10 1 5 -10 -6 -16 -8 -15 -16 4 -6 12 -14 22 -19 22 -5 0 -7 -4
-4 -8 3 -5 -1 -9 -9 -9 -8 0 -12 4 -10 8 3 3 -7 9 -20 12 -14 2 -28 0 -31 -5
-3 -5 -11 -5 -19 2 -9 7 -16 6 -25 -5z m-260 -75 c0 -5 -5 -10 -11 -10 -5 0
-7 5 -4 10 3 6 8 10 11 10 2 0 4 -4 4 -10z m-259 -323 c-6 -8 -7 -18 -3 -22 4
-5 1 -5 -6 -1 -10 6 -10 11 -1 22 6 8 14 14 16 14 3 0 0 -6 -6 -13z m582 -50
c-4 -7 2 -5 12 3 15 12 17 12 10 1 -6 -11 -4 -13 10 -7 16 6 16 4 4 -11 -12
-14 -12 -16 1 -11 16 6 63 -25 53 -35 -3 -4 -14 4 -25 16 l-19 22 16 -27 c11
-18 23 -25 36 -23 11 2 17 0 14 -6 -4 -5 -1 -9 4 -9 6 0 11 -9 11 -21 0 -14 5
-19 14 -16 20 8 28 -4 13 -21 -9 -13 -9 -14 1 -8 6 4 12 2 12 -3 0 -6 5 -11
11 -11 5 0 7 4 4 10 -4 6 1 7 11 3 15 -5 15 -7 0 -15 -9 -5 -16 -14 -16 -21 0
-8 4 -7 9 2 8 12 12 10 22 -12 7 -15 16 -27 22 -27 5 0 7 -7 4 -14 -4 -10 -1
-13 8 -9 8 3 12 10 8 16 -3 6 -1 7 6 3 9 -6 9 -11 0 -22 -8 -10 -8 -14 0 -15
6 -1 17 -2 24 -3 6 -1 11 -9 9 -19 -2 -10 3 -17 13 -17 9 0 18 -7 21 -15 4 -8
11 -12 17 -8 6 3 7 1 3 -6 -4 -6 -12 -8 -18 -5 -6 4 -8 2 -4 -4 3 -5 0 -13 -6
-16 -7 -3 -3 -3 10 0 21 5 28 -8 23 -39 -1 -5 3 -6 8 -2 6 3 8 13 5 23 -4 13
-3 14 4 4 5 -8 8 -24 7 -36 -2 -13 3 -23 11 -24 8 -1 21 -3 28 -4 11 -1 13 -6
5 -20 -9 -16 -7 -19 8 -16 10 2 18 -3 18 -11 0 -23 -55 -80 -71 -74 -10 4 -12
0 -8 -11 4 -11 1 -16 -11 -16 -10 0 -13 -5 -9 -12 4 -7 3 -8 -4 -4 -11 6 -17
-6 -13 -27 1 -4 -8 -3 -18 3 -17 9 -19 7 -16 -9 2 -13 -1 -18 -10 -15 -7 3
-16 0 -20 -5 -3 -6 -12 -9 -18 -5 -7 3 -3 -2 7 -10 11 -9 14 -16 7 -16 -7 0
-9 -5 -5 -12 4 -7 3 -8 -5 -4 -6 4 -9 12 -6 17 4 5 1 9 -4 9 -6 0 -11 -7 -11
-15 0 -8 -5 -15 -11 -15 -5 0 -7 -6 -3 -12 4 -7 4 -10 0 -7 -8 8 -72 -52 -68
-64 1 -5 -3 -5 -9 -1 -8 5 -1 16 22 35 19 16 30 29 26 29 -4 0 -22 -13 -40
-30 -18 -16 -35 -30 -39 -30 -5 0 -8 -5 -8 -11 0 -5 5 -7 12 -3 7 4 8 3 4 -5
-6 -9 -11 -9 -22 0 -12 10 -16 8 -21 -10 -4 -17 -8 -19 -20 -10 -11 10 -13 9
-11 -2 2 -8 8 -17 13 -21 6 -5 6 -8 -2 -8 -7 0 -17 8 -22 18 -8 14 -11 14 -12
2 -1 -8 -1 -19 0 -23 1 -5 -3 -6 -8 -2 -6 3 -7 13 -4 21 4 10 1 14 -8 12 -8
-1 -25 8 -38 21 -18 18 -20 23 -7 18 12 -5 16 -3 13 5 -2 7 -10 12 -17 10 -8
-2 -10 3 -7 13 4 8 2 15 -4 15 -6 0 -8 4 -4 9 3 5 0 13 -6 17 -7 4 -9 3 -5 -4
3 -6 2 -13 -3 -16 -5 -3 -8 8 -7 24 1 17 -1 30 -6 30 -4 0 -8 -6 -8 -12 0 -7
-7 0 -15 16 -12 23 -13 32 -3 43 10 12 8 14 -7 11 -22 -3 -27 19 -11 41 7 9 7
12 1 9 -5 -3 -17 1 -25 10 -13 14 -12 15 3 9 9 -3 19 -2 22 3 4 6 -1 10 -10
10 -13 0 -15 6 -10 30 6 26 4 29 -12 24 -17 -5 -17 -5 0 6 13 9 15 15 7 31 -6
11 -16 17 -23 13 -9 -5 -9 -4 0 6 10 11 15 11 30 -1 15 -11 14 -9 -2 9 -23 27
-29 73 -8 65 7 -3 13 0 13 6 0 10 -12 15 -31 13 -3 -1 -6 6 -6 14 0 10 4 11
11 4 14 -14 30 -13 20 3 -5 6 -9 19 -8 27 1 8 2 21 3 28 0 6 6 12 12 12 5 0 7
-6 3 -12 -14 -22 -12 -46 3 -41 10 4 11 9 4 16 -7 7 -7 14 0 23 7 8 7 14 -1
19 -5 3 -10 13 -10 22 0 9 3 13 6 10 12 -11 43 57 32 70 -6 7 -5 14 3 19 8 5
9 3 4 -6 -5 -8 -4 -11 3 -7 5 4 9 15 8 25 -2 9 5 23 16 30 15 11 16 17 6 35
-10 20 -10 21 6 8 14 -12 16 -12 10 4 -6 14 -4 16 6 10 10 -6 12 -4 7 10 -6
14 -3 16 13 12 18 -4 19 -3 9 9 -10 12 -9 13 6 8 14 -6 16 -4 10 6 -5 9 -4 11
4 6 6 -4 8 -13 4 -19z m1262 3 c3 -5 1 -10 -4 -10 -6 0 -11 5 -11 10 0 6 2 10
4 10 3 0 8 -4 11 -10z m-1335 -76 c0 -8 -19 -13 -24 -6 -3 5 1 9 9 9 8 0 15
-2 15 -3z m-566 -69 c-4 -8 -10 -12 -15 -9 -11 6 -2 24 11 24 5 0 7 -7 4 -15z
m515 -36 c-13 -25 -26 -31 -35 -18 -4 8 -3 9 4 5 10 -6 16 4 14 25 -1 3 5 6
13 6 10 0 11 -5 4 -18z m1941 -178 c13 -25 13 -31 -1 -31 -5 0 -8 4 -4 9 3 5
-2 17 -11 25 -8 9 -11 16 -5 16 6 0 15 -9 21 -19z m-349 -36 c10 -4 19 -11 19
-16 0 -6 -4 -8 -8 -5 -5 3 -9 -1 -9 -9 0 -8 4 -12 8 -10 4 3 10 -2 13 -11 3
-8 2 -12 -4 -9 -11 7 0 -26 26 -78 l17 -32 -23 20 -23 20 14 -22 c8 -13 17
-23 21 -23 5 0 8 -5 8 -11 0 -5 -4 -8 -9 -5 -20 13 -19 -24 2 -39 12 -8 16
-15 9 -15 -8 0 -10 -5 -6 -12 4 -6 3 -8 -3 -5 -6 4 -19 -3 -29 -15 -19 -21
-19 -21 6 -8 23 12 24 12 11 -3 -7 -9 -11 -23 -8 -31 4 -11 1 -13 -10 -9 -11
4 -14 2 -9 -5 4 -7 2 -12 -3 -12 -6 0 -11 -9 -11 -21 0 -11 -4 -18 -9 -14 -5
3 -11 -5 -13 -17 -2 -13 -9 -22 -16 -20 -16 3 -15 -10 1 -27 10 -11 8 -11 -10
-2 -20 10 -22 9 -16 -6 6 -16 5 -16 -10 -5 -14 12 -16 11 -12 -7 4 -23 -10
-37 -21 -20 -4 8 -9 7 -15 -2 -5 -9 -7 -2 -5 18 4 27 1 31 -15 28 -10 -2 -25
3 -33 11 -10 10 -15 11 -18 2 -3 -7 -7 -5 -11 6 -4 10 -3 15 3 11 6 -3 10 -1
10 4 0 6 -12 11 -27 12 -16 0 -22 3 -15 6 23 9 12 19 -18 17 -16 -1 -28 2 -25
7 3 4 13 6 23 3 15 -5 15 -4 -1 6 -9 6 -15 15 -12 21 3 5 -1 6 -9 3 -15 -6
-21 6 -17 29 1 4 -7 3 -17 -2 -14 -7 -19 -6 -20 5 -1 7 -3 20 -4 28 -1 8 -7
12 -14 9 -6 -2 -15 1 -19 6 -3 6 -12 8 -18 4 -8 -4 -7 -1 1 9 9 11 10 18 2 23
-6 3 -8 10 -5 15 3 4 -2 13 -10 20 -10 9 -15 9 -15 1 0 -6 5 -11 12 -11 6 0 8
-3 5 -7 -4 -3 -2 -12 4 -20 6 -7 7 -13 2 -13 -5 0 -15 11 -23 24 -11 22 -10
28 9 52 11 15 21 22 21 15 0 -17 15 -13 41 10 13 11 18 18 12 14 -7 -3 -13 -1
-13 4 0 6 7 11 16 11 8 0 12 5 9 10 -3 6 2 11 12 11 10 1 23 2 28 4 6 1 16 3
23 3 9 2 11 9 6 24 -6 21 -6 21 10 5 22 -21 33 -22 16 -2 -11 13 -10 14 5 9
14 -6 16 -4 10 7 -6 9 0 8 19 -5 16 -10 25 -13 22 -7 -4 6 0 14 8 17 9 3 14
10 11 14 -3 4 2 13 10 20 13 11 14 10 8 -6 -6 -16 -3 -16 24 4 38 27 43 27 44
5 0 -14 2 -15 6 -3 9 22 28 32 31 15 2 -8 12 -17 23 -20z m-1066 -33 c-3 -3
-11 0 -18 7 -9 10 -8 11 6 5 10 -3 15 -9 12 -12z m905 14 c0 -3 -4 -8 -10 -11
-5 -3 -10 -1 -10 4 0 6 5 11 10 11 6 0 10 -2 10 -4z m220 -86 c0 -5 -5 -10
-11 -10 -5 0 -7 5 -4 10 3 6 8 10 11 10 2 0 4 -4 4 -10z m-400 -24 c0 -2 -7
-6 -15 -10 -8 -3 -15 -1 -15 4 0 6 7 10 15 10 8 0 15 -2 15 -4z m705 -246 c-3
-5 -12 -10 -18 -10 -7 0 -6 4 3 10 19 12 23 12 15 0z m-501 -78 c3 -5 -1 -9
-9 -9 -8 0 -12 4 -9 9 3 4 7 8 9 8 2 0 6 -4 9 -8z m-67 -304 c-3 -8 -6 -5 -6
6 -1 11 2 17 5 13 3 -3 4 -12 1 -19z m-1116 -105 c13 -16 12 -17 -3 -4 -10 7
-18 15 -18 17 0 8 8 3 21 -13z m-217 -1 c3 -5 -1 -9 -9 -9 -8 0 -12 4 -9 9 3
4 7 8 9 8 2 0 6 -4 9 -8z"/>
<path d="M975 1250 c-3 -6 1 -7 9 -4 18 7 21 14 7 14 -6 0 -13 -4 -16 -10z"/>
<path d="M1092 1083 c5 -13 -28 -53 -37 -45 -5 4 -5 1 -1 -5 10 -17 9 -17 34
16 13 18 18 32 12 36 -6 4 -9 3 -8 -2z"/>
<path d="M543 965 c0 -8 4 -12 9 -9 5 3 6 10 3 15 -9 13 -12 11 -12 -6z"/>
<path d="M560 921 c0 -6 4 -13 10 -16 6 -3 7 1 4 9 -7 18 -14 21 -14 7z"/>
<path d="M656 782 c-2 -4 -1 -14 4 -22 7 -11 9 -9 7 8 -1 24 -3 26 -11 14z"/>
<path d="M1850 1079 c0 -5 5 -7 10 -4 6 3 10 8 10 11 0 2 -4 4 -10 4 -5 0 -10
-5 -10 -11z"/>
<path d="M2175 940 c-3 -5 -2 -10 4 -10 5 0 13 5 16 10 3 6 2 10 -4 10 -5 0
-13 -4 -16 -10z"/>
<path d="M2040 721 c0 -6 4 -13 10 -16 6 -3 7 1 4 9 -7 18 -14 21 -14 7z"/>
<path d="M847 1989 c7 -7 15 -10 18 -7 3 3 -2 9 -12 12 -14 6 -15 5 -6 -5z"/>
<path d="M984 1889 c-4 -7 -3 -9 4 -5 5 3 13 0 15 -6 4 -9 6 -10 6 -1 1 17
-16 25 -25 12z"/>
<path d="M1326 1841 c-4 -6 0 -11 8 -11 9 0 13 -6 10 -14 -3 -8 -1 -16 4 -20
12 -7 8 32 -5 45 -8 8 -13 8 -17 0z"/>
<path d="M1625 1720 c-3 -6 1 -7 9 -4 18 7 21 14 7 14 -6 0 -13 -4 -16 -10z"/>
<path d="M1984 1599 c-4 -7 -3 -9 4 -5 5 3 13 0 15 -6 4 -9 6 -10 6 -1 1 17
-16 25 -25 12z"/>
<path d="M1670 1536 c0 -2 7 -7 16 -10 8 -3 12 -2 9 4 -6 10 -25 14 -25 6z"/>
<path d="M2300 1482 c0 -5 7 -15 15 -22 8 -7 15 -9 15 -6 0 4 -7 14 -15 22 -8
9 -15 11 -15 6z"/>
<path d="M1505 1441 c-3 -5 -2 -12 3 -15 5 -3 9 1 9 9 0 17 -3 19 -12 6z"/>
<path d="M2370 1406 c0 -2 7 -9 15 -16 13 -11 14 -10 9 4 -5 14 -24 23 -24 12z"/>
<path d="M2470 1280 c6 -11 13 -20 16 -20 2 0 0 9 -6 20 -6 11 -13 20 -16 20
-2 0 0 -9 6 -20z"/>
<path d="M5 1011 c-3 -5 0 -13 6 -17 7 -4 9 -3 5 4 -3 5 0 13 6 15 9 4 10 6 1
6 -6 1 -14 -3 -18 -8z"/>
<path d="M190 580 c0 -5 5 -10 11 -10 5 0 7 5 4 10 -3 6 -8 10 -11 10 -2 0 -4
-4 -4 -10z"/>
<path d="M1650 541 c0 -5 7 -12 16 -15 14 -5 15 -4 4 9 -14 17 -20 19 -20 6z"/>
<path d="M1126 461 c-9 -10 -16 -21 -16 -26 0 -4 8 1 18 12 9 11 23 18 30 16
17 -6 15 4 -2 10 -8 3 -21 -2 -30 -12z"/>
<path d="M480 326 c0 -2 7 -7 16 -10 8 -3 12 -2 9 4 -6 10 -25 14 -25 6z"/>
<path d="M526 322 c-3 -4 4 -9 15 -9 23 -2 25 3 4 10 -8 4 -16 3 -19 -1z"/>
</g>
</svg>
